<svg width="32.000000" height="32.000000" viewBox="0 0 32 32" fill="none" xmlns="http://www.w3.org/2000/svg" xmlns:xlink="http://www.w3.org/1999/xlink">
	<desc>
			Created with Pixso.
	</desc>
	<defs>
		<clipPath id="clip16_314">
			<rect id="chart-histogram_5528038" width="32.000000" height="32.000000" fill="white" fill-opacity="0"/>
		</clipPath>
	</defs>
	<g clip-path="url(#clip16_314)">
		<path id="path" d="M30.66 29.33L6.66 29.33C5.56 29.33 4.61 28.94 3.83 28.16C3.05 27.38 2.66 26.43 2.66 25.33L2.66 1.33C2.66 0.44 2.22 0 1.33 0C0.44 0 0 0.44 0 1.33L0 25.33C0 26.21 0.17 27.06 0.5 27.88C0.84 28.69 1.33 29.42 1.95 30.04C2.58 30.66 3.3 31.15 4.11 31.49C4.93 31.82 5.78 31.99 6.66 32L30.66 32C31.55 32 32 31.55 32 30.66C32 29.77 31.55 29.33 30.66 29.33Z" fill="#FFFFFF" fill-opacity="1.000000" fill-rule="nonzero"/>
		<path id="path" d="M8 26.66C8.88 26.66 9.33 26.22 9.33 25.33L9.33 16C9.33 15.11 8.88 14.66 8 14.66C7.11 14.66 6.66 15.11 6.66 16L6.66 25.33C6.66 26.22 7.11 26.66 8 26.66Z" fill="#FFFFFF" fill-opacity="1.000000" fill-rule="nonzero"/>
		<path id="path" d="M13.33 13.33L13.33 25.33C13.33 26.22 13.77 26.66 14.66 26.66C15.55 26.66 16 26.22 16 25.33L16 13.33C16 12.44 15.55 12 14.66 12C13.77 12 13.33 12.44 13.33 13.33Z" fill="#FFFFFF" fill-opacity="1.000000" fill-rule="nonzero"/>
		<path id="path" d="M20 17.33L20 25.33C20 26.22 20.44 26.66 21.33 26.66C22.22 26.66 22.66 26.22 22.66 25.33L22.66 17.33C22.66 16.44 22.22 16 21.33 16C20.44 16 20 16.44 20 17.33Z" fill="#FFFFFF" fill-opacity="1.000000" fill-rule="nonzero"/>
		<path id="path" d="M26.66 12L26.66 25.33C26.66 26.22 27.11 26.66 28 26.66C28.88 26.66 29.33 26.22 29.33 25.33L29.33 12C29.33 11.11 28.88 10.66 28 10.66C27.11 10.66 26.66 11.11 26.66 12Z" fill="#FFFFFF" fill-opacity="1.000000" fill-rule="nonzero"/>
		<path id="path" d="M8 12C8.36 11.99 8.68 11.86 8.94 11.6L13.72 6.82C14.35 6.22 14.98 6.22 15.6 6.82L18.5 9.72C19.28 10.5 20.22 10.89 21.33 10.89C22.43 10.89 23.38 10.5 24.16 9.72L31.6 2.27C32.21 1.64 32.21 1.02 31.59 0.4C30.97 -0.22 30.35 -0.22 29.72 0.39L22.27 7.83C21.64 8.46 21.01 8.46 20.39 7.83L17.49 4.94C16.71 4.16 15.77 3.77 14.66 3.77C13.56 3.77 12.61 4.16 11.83 4.94L7.05 9.72C6.63 10.14 6.54 10.62 6.76 11.17C6.99 11.72 7.4 12 8 12Z" fill="#FFFFFF" fill-opacity="1.000000" fill-rule="nonzero"/>
	</g>
</svg>
