<svg width="45.000000" height="45.000000" viewBox="0 0 45 45" fill="none" xmlns="http://www.w3.org/2000/svg" xmlns:xlink="http://www.w3.org/1999/xlink">
	<desc>
			Created with Pixso.
	</desc>
	<defs/>
	<path id="path" d="M37.49 20.63C37.49 21.67 36.65 22.5 35.62 22.5C34.58 22.5 33.74 21.67 33.74 20.63C33.74 15.46 29.53 11.25 24.36 11.25C23.33 11.25 22.49 10.41 22.49 9.37C22.49 8.34 23.33 7.5 24.36 7.5C31.6 7.5 37.49 13.39 37.49 20.63ZM26.24 20.63C26.24 21.67 27.08 22.5 28.11 22.5C29.15 22.5 29.99 21.67 29.99 20.63C29.99 17.53 27.46 15 24.36 15C23.33 15 22.49 15.84 22.49 16.88C22.49 17.91 23.33 18.75 24.36 18.75C25.4 18.75 26.24 19.59 26.24 20.63ZM24.36 0C23.33 0 22.49 0.83 22.49 1.87C22.49 2.91 23.33 3.75 24.36 3.75C33.67 3.75 41.24 11.32 41.24 20.63C41.24 21.67 42.08 22.5 43.12 22.5C44.15 22.5 45 21.67 45 20.63C45 9.25 35.74 0 24.36 0ZM30.45 34.42C31.49 35.45 31.99 36.88 31.84 38.34C31.68 39.81 30.88 41.12 29.63 41.93C26.46 43.99 22.83 45 19.23 45C14.25 45 9.3 43.08 5.6 39.39C-0.77 33.01 -1.84 22.91 3.06 15.35C3.87 14.11 5.18 13.31 6.65 13.15C8.11 12.99 9.54 13.5 10.57 14.54L19.19 23.15L21.16 21.18C21.89 20.44 23.08 20.44 23.81 21.18C24.54 21.91 24.54 23.1 23.81 23.83L21.84 25.8L30.45 34.42ZM27.8 37.07L7.92 17.19C7.66 16.93 7.36 16.88 7.16 16.88C6.69 16.88 6.4 17.11 6.21 17.4C2.26 23.47 3.12 31.6 8.25 36.73C13.38 41.86 21.52 42.72 27.59 38.78C27.88 38.59 28.07 38.29 28.11 37.95C28.13 37.75 28.11 37.39 27.8 37.07Z" fill="#FFFFFF" fill-opacity="1.000000" fill-rule="nonzero"/>
</svg>
