<svg width="48.000000" height="48.000000" viewBox="0 0 48 48" fill="none" xmlns="http://www.w3.org/2000/svg" xmlns:xlink="http://www.w3.org/1999/xlink">
	<desc>
			Created with Pixso.
	</desc>
	<defs/>
	<rect id="фрейм 4" rx="10.000000" width="48.000000" height="47.999992" fill="#FF9966" fill-opacity="1.000000"/>
	<path id="path679" d="M17.25 16C17.25 12.68 20.27 10 24 10C27.72 10 30.75 12.68 30.75 16C30.75 19.31 27.72 22 24 22C20.27 22 17.25 19.31 17.25 16Z" fill="#000000" fill-opacity="0" fill-rule="nonzero"/>
	<path id="path679" d="M24 10C27.72 10 30.75 12.68 30.75 16C30.75 19.31 27.72 22 24 22C20.27 22 17.25 19.31 17.25 16C17.25 12.68 20.27 10 24 10Z" stroke="#FFFFFF" stroke-opacity="1.000000" stroke-width="3.000000" stroke-linejoin="round"/>
	<path id="path683" d="M12.77 37.98L12.75 38C12.75 38.84 13.41 39.5 14.25 39.5C15.08 39.5 15.75 38.84 15.75 38L15.73 37.98L12.77 37.98ZM32.27 37.98L32.25 38C32.25 38.84 32.91 39.5 33.75 39.5C34.58 39.5 35.25 38.84 35.25 38L35.23 37.98L32.27 37.98Z" fill="#000000" fill-opacity="0" fill-rule="nonzero"/>
	<path id="path683" d="M14.25 38L14.25 37.33C14.25 32.54 18.61 28.66 24 28.66C29.38 28.66 33.75 32.54 33.75 37.33L33.75 38" stroke="#FFFFFF" stroke-opacity="1.000000" stroke-width="3.000000" stroke-linejoin="round" stroke-linecap="round"/>
</svg>
