<svg width="32.000000" height="32.000000" viewBox="0 0 32 32" fill="none" xmlns="http://www.w3.org/2000/svg" xmlns:xlink="http://www.w3.org/1999/xlink">
	<desc>
			Created with Pixso.
	</desc>
	<defs/>
	<path id="path" d="M29.11 11.9C28.65 11.73 28.32 11.42 28.14 10.97C27.95 10.51 27.96 10.06 28.17 9.62C28.57 8.78 28.69 7.92 28.53 7.01C28.38 6.1 27.97 5.32 27.32 4.67C26.67 4.02 25.89 3.62 24.99 3.46C24.08 3.31 23.21 3.43 22.38 3.82C21.93 4.03 21.48 4.04 21.03 3.86C20.57 3.67 20.26 3.34 20.1 2.88C19.79 2.02 19.26 1.32 18.51 0.79C17.75 0.26 16.92 0 16 0C15.08 0 14.25 0.26 13.5 0.79C12.74 1.32 12.21 2.02 11.9 2.88C11.74 3.34 11.43 3.67 10.97 3.86C10.52 4.05 10.07 4.03 9.62 3.82C8.79 3.42 7.92 3.3 7.01 3.46C6.1 3.61 5.32 4.02 4.67 4.67C4.02 5.32 3.61 6.1 3.46 7.01C3.3 7.91 3.42 8.79 3.82 9.62C4.03 10.06 4.04 10.51 3.86 10.97C3.67 11.42 3.34 11.73 2.88 11.9C2.01 12.21 1.32 12.74 0.79 13.49C0.26 14.24 0 15.08 0 16C0 16.91 0.26 17.75 0.79 18.5C1.32 19.25 2.01 19.78 2.88 20.09C3.34 20.25 3.67 20.57 3.86 21.02C4.05 21.48 4.04 21.93 3.83 22.37C3.43 23.2 3.31 24.07 3.47 24.98C3.62 25.88 4.02 26.66 4.67 27.31C5.32 27.96 6.1 28.37 7.01 28.53C7.91 28.68 8.78 28.56 9.61 28.17C10.06 27.96 10.51 27.94 10.97 28.13C11.42 28.32 11.73 28.65 11.9 29.11C12.21 29.97 12.74 30.67 13.49 31.2C14.24 31.73 15.07 32 15.99 32C16.91 32 17.75 31.73 18.5 31.2C19.25 30.67 19.78 29.97 20.09 29.11C20.26 28.65 20.57 28.32 21.02 28.13C21.48 27.94 21.93 27.96 22.37 28.17C23.2 28.56 24.07 28.68 24.98 28.53C25.89 28.37 26.66 27.97 27.32 27.32C27.97 26.67 28.37 25.89 28.53 24.98C28.68 24.08 28.56 23.21 28.17 22.38C27.96 21.93 27.94 21.48 28.13 21.03C28.32 20.57 28.65 20.26 29.11 20.09C29.97 19.78 30.67 19.25 31.2 18.5C31.73 17.75 32 16.92 32 16C32 15.08 31.73 14.24 31.2 13.49C30.67 12.74 29.98 12.21 29.11 11.9ZM28.21 17.56C27.64 17.77 27.12 18.08 26.68 18.51C26.23 18.93 25.89 19.43 25.65 20C25.42 20.57 25.31 21.16 25.32 21.77C25.34 22.39 25.48 22.97 25.74 23.53C26.08 24.24 25.97 24.87 25.42 25.42C24.86 25.97 24.23 26.08 23.53 25.74C22.97 25.48 22.38 25.34 21.77 25.33C21.15 25.31 20.56 25.42 19.99 25.65C19.43 25.89 18.93 26.23 18.51 26.68C18.08 27.12 17.77 27.64 17.56 28.22C17.3 28.95 16.78 29.32 15.99 29.32C15.21 29.32 14.69 28.95 14.43 28.22C14.22 27.64 13.9 27.12 13.48 26.68C13.06 26.23 12.56 25.89 11.99 25.66C11.42 25.42 10.83 25.31 10.22 25.33C9.6 25.34 9.02 25.48 8.46 25.74C7.75 26.08 7.12 25.97 6.57 25.42C6.02 24.86 5.91 24.23 6.25 23.53C6.51 22.97 6.65 22.39 6.66 21.77C6.68 21.16 6.57 20.56 6.33 20C6.1 19.43 5.76 18.93 5.31 18.51C4.87 18.08 4.35 17.77 3.77 17.56C3.04 17.3 2.67 16.78 2.67 16C2.67 15.21 3.04 14.69 3.77 14.43C4.35 14.22 4.87 13.91 5.31 13.49C5.76 13.06 6.1 12.57 6.33 12C6.57 11.43 6.68 10.84 6.66 10.22C6.65 9.61 6.51 9.02 6.24 8.46C5.91 7.76 6.02 7.13 6.57 6.57C7.12 6.02 7.75 5.91 8.46 6.25C9.02 6.51 9.6 6.65 10.22 6.67C10.83 6.68 11.42 6.57 11.99 6.34C12.56 6.1 13.06 5.76 13.48 5.32C13.91 4.87 14.22 4.36 14.43 3.78C14.69 3.04 15.21 2.67 15.99 2.67C16.78 2.67 17.3 3.04 17.56 3.78C17.77 4.36 18.08 4.87 18.51 5.32C18.93 5.76 19.43 6.1 19.99 6.34C20.56 6.57 21.16 6.68 21.77 6.67C22.39 6.65 22.97 6.51 23.53 6.25C24.23 5.91 24.86 6.02 25.42 6.57C25.97 7.13 26.08 7.76 25.74 8.47C25.48 9.02 25.34 9.61 25.32 10.22C25.31 10.84 25.42 11.43 25.65 12C25.89 12.57 26.23 13.06 26.68 13.48C27.12 13.91 27.64 14.22 28.21 14.43C28.95 14.69 29.32 15.21 29.32 16C29.32 16.78 28.95 17.3 28.21 17.56Z" fill="#FFFFFF" fill-opacity="1.000000" fill-rule="nonzero"/>
</svg>
