<svg width="29.333496" height="32.000000" viewBox="0 0 29.3335 32" fill="none" xmlns="http://www.w3.org/2000/svg" xmlns:xlink="http://www.w3.org/1999/xlink">
	<desc>
			Created with Pixso.
	</desc>
	<defs/>
	<path id="path" d="M22.66 0L6.66 0C2.99 0 0 2.99 0 6.66L0 25.33C0 29 2.99 32 6.66 32L22.66 32C26.34 32 29.33 29 29.33 25.33L29.33 6.66C29.33 2.99 26.34 0 22.66 0ZM26.66 25.33C26.66 27.53 24.87 29.33 22.66 29.33L6.66 29.33C4.46 29.33 2.66 27.53 2.66 25.33L2.66 6.66C2.66 4.46 4.46 2.66 6.66 2.66L22.66 2.66C24.87 2.66 26.66 4.46 26.66 6.66L26.66 25.33ZM14.66 6.66C9.52 6.66 5.33 10.85 5.33 16C5.33 21.14 9.52 25.33 14.66 25.33C19.81 25.33 24 21.14 24 16C24 10.85 19.81 6.66 14.66 6.66ZM14.66 22.66C10.99 22.66 8 19.67 8 16C8 12.32 10.99 9.33 14.66 9.33C18.34 9.33 21.33 12.32 21.33 16C21.33 19.67 18.34 22.66 14.66 22.66ZM16.66 16C16.66 17.1 15.77 18 14.66 18C13.56 18 12.66 17.1 12.66 16C12.66 14.89 13.56 14 14.66 14C15.77 14 16.66 14.89 16.66 16Z" fill="#FFFFFF" fill-opacity="1.000000" fill-rule="nonzero"/>
</svg>
