<svg width="32.003906" height="32.001404" viewBox="0 0 32.0039 32.0014" fill="none" xmlns="http://www.w3.org/2000/svg" xmlns:xlink="http://www.w3.org/1999/xlink">
	<desc>
			Created with Pixso.
	</desc>
	<defs/>
	<path id="path" d="M28.98 21.86C28.52 20.51 27.71 19.41 26.55 18.58C25.39 17.75 24.09 17.33 22.66 17.33L17.33 17.33L17.33 15.88C17.99 15.77 18.62 15.58 19.23 15.31C19.83 15.05 20.4 14.71 20.92 14.3C21.45 13.89 21.91 13.42 22.32 12.9C22.73 12.37 23.06 11.81 23.33 11.2C23.6 10.59 23.78 9.96 23.89 9.3C24 8.65 24.03 7.99 23.97 7.33C23.91 6.66 23.78 6.02 23.56 5.39C23.35 4.76 23.06 4.17 22.69 3.61C22.33 3.06 21.9 2.56 21.41 2.11C20.92 1.66 20.39 1.27 19.8 0.96C19.22 0.64 18.6 0.4 17.96 0.24C17.32 0.08 16.66 0 16 0C15.33 0 14.68 0.08 14.03 0.24C13.39 0.4 12.78 0.64 12.19 0.96C11.61 1.27 11.07 1.66 10.58 2.11C10.09 2.56 9.67 3.06 9.3 3.61C8.94 4.17 8.65 4.76 8.43 5.39C8.22 6.02 8.08 6.66 8.02 7.33C7.97 7.99 7.99 8.65 8.1 9.3C8.21 9.96 8.4 10.59 8.66 11.2C8.93 11.81 9.27 12.37 9.68 12.9C10.08 13.42 10.55 13.89 11.07 14.3C11.6 14.71 12.16 15.05 12.77 15.31C13.38 15.58 14.01 15.77 14.66 15.88L14.66 17.33L9.33 17.33C7.9 17.33 6.6 17.75 5.44 18.58C4.28 19.41 3.47 20.51 3.01 21.86C2.24 22.23 1.6 22.76 1.08 23.43C0.57 24.11 0.23 24.87 0.08 25.71C-0.07 26.55 -0.02 27.38 0.22 28.2C0.47 29.02 0.89 29.73 1.48 30.35C2.07 30.97 2.77 31.42 3.57 31.7C4.38 31.98 5.21 32.06 6.05 31.95C6.9 31.83 7.67 31.53 8.37 31.04C9.08 30.56 9.63 29.94 10.03 29.18C10.43 28.43 10.65 27.63 10.66 26.78C10.68 25.92 10.51 25.11 10.13 24.34C9.76 23.57 9.24 22.93 8.56 22.42C7.88 21.9 7.12 21.57 6.28 21.41C7.07 20.47 8.09 19.99 9.33 19.99L14.66 19.99L14.66 21.5C13.82 21.71 13.07 22.12 12.42 22.7C11.78 23.28 11.3 23.99 11 24.8C10.69 25.62 10.6 26.46 10.71 27.33C10.82 28.2 11.12 28.99 11.62 29.7C12.12 30.42 12.75 30.98 13.53 31.39C14.3 31.79 15.12 31.99 16 31.99C16.87 31.99 17.69 31.79 18.47 31.39C19.24 30.98 19.88 30.42 20.38 29.7C20.87 28.99 21.18 28.2 21.29 27.33C21.4 26.46 21.3 25.62 21 24.8C20.69 23.99 20.22 23.28 19.57 22.7C18.92 22.12 18.18 21.71 17.33 21.5L17.33 19.99L22.66 19.99C23.9 19.99 24.92 20.47 25.72 21.41C24.88 21.56 24.12 21.9 23.44 22.41C22.76 22.93 22.23 23.57 21.86 24.34C21.49 25.11 21.31 25.92 21.33 26.77C21.35 27.63 21.56 28.43 21.96 29.18C22.37 29.93 22.92 30.55 23.62 31.04C24.32 31.53 25.1 31.83 25.94 31.94C26.79 32.06 27.61 31.97 28.42 31.69C29.23 31.41 29.92 30.96 30.52 30.35C31.11 29.73 31.52 29.01 31.77 28.2C32.02 27.38 32.06 26.55 31.91 25.71C31.76 24.87 31.43 24.11 30.91 23.43C30.39 22.75 29.75 22.23 28.98 21.86ZM10.66 7.99C10.66 6.52 11.18 5.26 12.23 4.22C13.27 3.18 14.52 2.66 16 2.66C17.47 2.66 18.73 3.18 19.77 4.22C20.81 5.26 21.33 6.52 21.33 7.99C21.33 9.47 20.81 10.72 19.77 11.77C18.73 12.81 17.47 13.33 16 13.33C14.52 13.33 13.27 12.81 12.23 11.77C11.18 10.72 10.66 9.47 10.66 7.99ZM8 26.66C8 27.4 7.74 28.02 7.21 28.54C6.69 29.06 6.06 29.33 5.33 29.33C4.59 29.33 3.96 29.06 3.44 28.54C2.92 28.02 2.66 27.4 2.66 26.66C2.66 25.92 2.92 25.29 3.44 24.77C3.96 24.25 4.59 23.99 5.33 23.99C6.06 23.99 6.69 24.25 7.21 24.77C7.74 25.29 8 25.92 8 26.66ZM18.66 26.66C18.66 27.4 18.4 28.02 17.88 28.54C17.36 29.06 16.73 29.33 16 29.33C15.26 29.33 14.63 29.06 14.11 28.54C13.59 28.02 13.33 27.4 13.33 26.66C13.33 25.92 13.59 25.29 14.11 24.77C14.63 24.25 15.26 23.99 16 23.99C16.73 23.99 17.36 24.25 17.88 24.77C18.4 25.29 18.66 25.92 18.66 26.66ZM26.67 29.33C25.93 29.33 25.3 29.06 24.78 28.54C24.26 28.02 24 27.4 24 26.66C24 25.92 24.26 25.29 24.78 24.77C25.3 24.25 25.93 23.99 26.67 23.99C27.4 23.99 28.03 24.25 28.55 24.77C29.07 25.29 29.33 25.92 29.33 26.66C29.33 27.4 29.07 28.02 28.55 28.54C28.03 29.06 27.4 29.33 26.67 29.33Z" fill="#FFFFFF" fill-opacity="1.000000" fill-rule="nonzero"/>
</svg>
